<?xml version="1.0" encoding="UTF-8"?>
<svg id="Layer_1" data-name="Layer 1" xmlns="http://www.w3.org/2000/svg" viewBox="0 0 112.5 108">
  <defs>
    <style>
      .cls-1 {
        fill: #6380dc;
      }

      .cls-2 {
        fill: #9be69d;
      }

      .cls-3 {
        fill: #fef056;
      }

      .cls-4 {
        fill: #ff546a;
      }
    </style>
  </defs>
  <path class="cls-1" d="M46.3,67.55l15.81-11c2.23-1.76,2.99-4.61,1.71-6.36l-9.91-11c-2.07-2.84-7.46-.83-8.53,3.18l-.54,2h-14.14c-2.49,0-3.96-2.01-3.29-4.5l1.21-4.5c1.33-4.97,6.44-9,11.41-9h9.64l-.54,2c-1.07,4.01,3.24,6.02,6.83,3.18l15.81-11c2.23-1.76,2.99-4.61,1.71-6.36l-9.91-11c-2.07-2.84-7.46-.83-8.53,3.18l-.54,2h-9.64c-14.91,0-30.24,12.09-34.23,27L.96,71.37c-4,14.91,4.85,27,19.77,27h9.64l-.54,2c-1.07,4.01,3.24,6.02,6.83,3.18l15.81-11c2.23-1.76,2.99-4.61,1.71-6.36l-9.91-11c-2.07-2.84-7.46-.83-8.53,3.18l-.54,2h-9.64c-4.97,0-7.92-4.03-6.59-9l1.21-4.5c.67-2.49,3.22-4.5,5.71-4.5h14.14l-.54,2c-1.07,4.01,3.24,6.02,6.83,3.18Z"/>
  <rect class="cls-4" x="83.33" y="4.5" width="27" height="27" rx="4.5" ry="4.5"/>
  <rect class="cls-3" x="74.33" y="40.5" width="27" height="27" rx="4.5" ry="4.5"/>
  <rect class="cls-2" x="65.33" y="76.5" width="27" height="27" rx="4.5" ry="4.5"/>
</svg>