<?xml version="1.0" encoding="UTF-8"?>
<svg id="Layer_1" data-name="Layer 1" xmlns="http://www.w3.org/2000/svg" viewBox="0 0 270 116">
  <defs>
    <style>
      .cls-1 {
        fill: #6380dc;
      }

      .cls-2 {
        fill: #6c5e69;
      }

      .cls-3 {
        fill: #9be69d;
      }

      .cls-4 {
        fill: #fef056;
      }

      .cls-5 {
        fill: #ff546a;
      }
    </style>
  </defs>
  <path class="cls-2" d="M50.49,21.52c-5.44-.23-10.48,1.48-14.49,4.49-4.01-3.01-9.05-4.72-14.49-4.49C9.39,22.04,0,32.38,0,44.51v44.49c0,2.49,2.01,4.5,4.5,4.5h9c2.49,0,4.5-2.01,4.5-4.5v-44.8c0-2.35,1.71-4.45,4.05-4.68,2.68-.26,4.95,1.85,4.95,4.48v45c0,2.49,2.01,4.5,4.5,4.5h9c2.49,0,4.5-2.01,4.5-4.5v-44.8c0-2.35,1.71-4.45,4.05-4.68,2.68-.26,4.95,1.85,4.95,4.48v45c0,2.49,2.01,4.5,4.5,4.5h9c2.49,0,4.5-2.01,4.5-4.5v-44.49c0-12.13-9.39-22.47-21.51-22.99Z"/>
  <rect class="cls-2" x="81" y="21.5" width="18" height="72" rx="4.5" ry="4.5"/>
  <path class="cls-2" d="M126,26v42.61c0,2.47,3.5,3.11,4.29.77,0-.02.02-.05.02-.07l12.08-44.5c.53-1.96,2.31-3.32,4.34-3.32h9.33c2.96,0,5.12,2.82,4.34,5.68l-12.77,47.05-.1.33c-3.54,11.33-13.9,18.95-25.77,18.95h-9.27c-2.49,0-4.5-2.01-4.5-4.5V26c0-2.49,2.01-4.5,4.5-4.5h9c2.49,0,4.5,2.01,4.5,4.5Z"/>
  <path class="cls-1" d="M203.47,67.17l15.81-11c2.23-1.76,2.99-4.61,1.71-6.36l-9.91-11c-2.07-2.84-7.46-.83-8.53,3.18l-.54,2h-14.14c-2.49,0-3.96-2.01-3.29-4.5l1.21-4.5c1.33-4.97,6.44-9,11.41-9h9.64l-.54,2c-1.07,4.01,3.24,6.02,6.83,3.18l15.81-11c2.23-1.76,2.99-4.61,1.71-6.36l-9.91-11c-2.07-2.84-7.46-.83-8.53,3.18l-.54,2h-9.64c-14.91,0-30.24,12.09-34.23,27l-9.65,36c-4,14.91,4.85,27,19.77,27h9.64l-.54,2c-1.07,4.01,3.24,6.02,6.83,3.18l15.81-11c2.23-1.76,2.99-4.61,1.71-6.36l-9.91-11c-2.07-2.84-7.46-.83-8.53,3.18l-.54,2h-9.64c-4.97,0-7.92-4.03-6.59-9l1.21-4.5c.67-2.49,3.22-4.5,5.71-4.5h14.14l-.54,2c-1.07,4.01,3.24,6.02,6.83,3.18Z"/>
  <rect class="cls-5" x="240.5" y="4.12" width="27" height="27" rx="4.5" ry="4.5"/>
  <rect class="cls-4" x="231.5" y="40.12" width="27" height="27" rx="4.5" ry="4.5"/>
  <rect class="cls-3" x="222.5" y="76.12" width="27" height="27" rx="4.5" ry="4.5"/>
</svg>